<svg width="16" height="16" fill="none" xmlns="http://www.w3.org/2000/svg"><path d="M5 9a1 1 0 100-2 1 1 0 000 2zM6 11a1 1 0 11-2 0 1 1 0 012 0zM8 9a1 1 0 100-2 1 1 0 000 2zM9 11a1 1 0 11-2 0 1 1 0 012 0zM11 9a1 1 0 100-2 1 1 0 000 2z" fill="WindowText"/><path fill-rule="evenodd" clip-rule="evenodd" d="M15 3.5A2.5 2.5 0 0012.5 1h-9A2.5 2.5 0 001 3.5v9A2.5 2.5 0 003.5 15h9a2.5 2.5 0 002.5-2.5v-9zM2 5h12v7.5c0 .83-.67 1.5-1.5 1.5h-9A1.5 1.5 0 012 12.5V5zm1.5-3h9c.83 0 1.5.67 1.5 1.5V4H2v-.5C2 2.67 2.67 2 3.5 2z" fill="WindowText"/></svg>